<?xml version="1.0" standalone="no"?>
<!DOCTYPE svg PUBLIC "-//W3C//DTD SVG 20010904//EN"
 "http://www.w3.org/TR/2001/REC-SVG-20010904/DTD/svg10.dtd">
<svg version="1.0" xmlns="http://www.w3.org/2000/svg"
 width="137.000000pt" height="137.000000pt" viewBox="0 0 137.000000 137.000000"
 preserveAspectRatio="xMidYMid meet">
<metadata>
Created by potrace 1.14, written by Peter Selinger 2001-2017
</metadata>
<g transform="translate(0.000000,137.000000) scale(0.100000,-0.100000)"
fill="#000000" stroke="none">
<path d="M50 1213 c0 -93 4 -153 10 -153 5 0 12 12 16 28 22 100 59 155 131
194 53 30 150 58 195 58 l29 0 -3 -127 -3 -127 -55 -1 -55 -1 -1 -153 c-1
-122 2 -154 13 -158 18 -7 20 -5 27 40 7 44 37 107 60 126 18 15 17 39 16
-283 0 -247 -5 -266 -82 -305 -27 -12 -45 -27 -42 -32 3 -5 93 -9 200 -9 l194
0 1 -47 c2 -80 -2 -117 -16 -150 -14 -34 -67 -73 -97 -73 -20 0 -24 -26 -5
-32 6 -2 115 -4 242 -4 204 1 230 3 233 17 2 11 -6 19 -22 23 -48 12 -84 53
-95 109 -5 30 -9 228 -8 472 l2 420 35 1 c46 1 124 -22 183 -54 78 -42 127
-119 136 -214 1 -5 8 -8 16 -8 19 0 17 -13 19 158 0 87 -3 146 -9 150 -5 4
-66 7 -135 8 -69 1 -129 2 -135 3 -6 0 -10 54 -10 138 l0 138 -492 0 -493 0 0
-152z m747 104 c64 -22 130 -64 157 -100 28 -38 58 -120 45 -127 -4 -3 -84 -5
-176 -5 l-168 0 -3 129 -3 128 53 -5 c29 -3 72 -12 95 -20z m-97 -279 c3 -73
0 -661 -3 -664 -2 -3 -13 8 -23 23 -17 26 -19 54 -22 341 l-3 312 25 0 c14 0
26 -6 26 -12z"/>
</g>
</svg>
